<svg width="16" height="16" viewBox="0 0 16 16" fill="none" xmlns="http://www.w3.org/2000/svg">
<path d="M14.0622 3.5L14.9282 4L15.4282 3.13397L14.5622 2.63397L14.0622 3.5ZM10.5981 1.5L11.0981 0.633975L10.2321 0.133975L9.73205 1L10.5981 1.5ZM4 6.9282L4.5 6.06218L3.63397 5.56218L3.13397 6.4282L4 6.9282ZM2 10.3923L1.13397 9.8923L0.633975 10.7583L1.5 11.2583L2 10.3923ZM6.59808 8.4282L6.09808 9.29423L6.9641 9.79423L7.4641 8.9282L6.59808 8.4282ZM8.06218 13.8923L7.56218 14.7583L8.4282 15.2583L8.9282 14.3923L8.06218 13.8923ZM14.5622 2.63397L11.0981 0.633975L10.0981 2.36603L13.5622 4.36603L14.5622 2.63397ZM3.13397 6.4282L1.13397 9.8923L2.86603 10.8923L4.86603 7.4282L3.13397 6.4282ZM9.73205 1L5.73205 7.9282L7.4641 8.9282L11.4641 2L9.73205 1ZM7.09808 7.56218L4.5 6.06218L3.5 7.79423L6.09808 9.29423L7.09808 7.56218ZM1.5 11.2583L7.56218 14.7583L8.56218 13.0263L2.5 9.52628L1.5 11.2583ZM8.9282 14.3923L14.9282 4L13.1962 3L7.19615 13.3923L8.9282 14.3923Z" fill="black"/>
</svg>
