<svg width="24" height="17" viewBox="0 0 24 17" fill="none" xmlns="http://www.w3.org/2000/svg">
<path fill-rule="evenodd" clip-rule="evenodd" d="M6.41846 4.33899C7.67896 3.69629 9.03711 3.3125 10.4143 3.18738V0H12.4143V3.18738C13.7915 3.3125 15.1497 3.69629 16.4102 4.33899L18.6143 1.40002L20.2144 2.59998L18.1064 5.41052C18.4841 5.70068 18.8472 6.01855 19.1924 6.36401L22.1213 9.29285L22.8286 10L22.1213 10.7072L19.1924 13.636C14.8967 17.9318 7.93188 17.9318 3.63623 13.636L0.707275 10.7072L0 10L0.707275 9.29285L3.63623 6.36401C3.98145 6.01855 4.34448 5.70068 4.72217 5.41052L2.61426 2.59998L4.21436 1.40002L6.41846 4.33899ZM6.67236 6.49011C9.56641 4.69287 13.2622 4.69287 16.1562 6.49011C16.7319 6.84766 17.2769 7.27673 17.7783 7.7782L20 10L17.7783 12.2218C14.2634 15.7366 8.56519 15.7366 5.05029 12.2218L2.82861 10L5.05029 7.7782C5.55176 7.27673 6.09668 6.84766 6.67236 6.49011ZM11.4143 12.5C12.7949 12.5 13.9143 11.3807 13.9143 10C13.9143 8.61926 12.7949 7.5 11.4143 7.5C10.0337 7.5 8.91431 8.61926 8.91431 10C8.91431 11.3807 10.0337 12.5 11.4143 12.5Z" transform="translate(0.585693)" fill="black"/>
</svg>
