<svg width="14" height="14" viewBox="0 0 14 14" fill="none" xmlns="http://www.w3.org/2000/svg">
<mask id="path-1-inside-1" fill="white">
<path d="M0.000244141 14.0001V5.65211e-05H6.00024V14.0001H0.000244141Z"/>
<path d="M8.00013 14V0H14.0001V14H8.00013Z"/>
</mask>
<path d="M0.000244141 5.65211e-05V-1.99994H-1.99976V5.65211e-05H0.000244141ZM0.000244141 14.0001H-1.99976V16.0001H0.000244141V14.0001ZM6.00024 14.0001V16.0001H8.00024V14.0001H6.00024ZM6.00024 5.65211e-05H8.00024V-1.99994H6.00024V5.65211e-05ZM8.00013 0V-2H6.00013V0H8.00013ZM8.00013 14H6.00013V16H8.00013V14ZM14.0001 14V16H16.0001V14H14.0001ZM14.0001 0H16.0001V-2H14.0001V0ZM-1.99976 5.65211e-05V14.0001H2.00024V5.65211e-05H-1.99976ZM0.000244141 16.0001H6.00024V12.0001H0.000244141V16.0001ZM8.00024 14.0001V5.65211e-05H4.00024V14.0001H8.00024ZM6.00024 -1.99994H0.000244141V2.00006H6.00024V-1.99994ZM6.00013 0V14H10.0001V0H6.00013ZM8.00013 16H14.0001V12H8.00013V16ZM16.0001 14V0H12.0001V14H16.0001ZM14.0001 -2H8.00013V2H14.0001V-2Z" fill="black" mask="url(#path-1-inside-1)"/>
</svg>
