<svg width="20" height="20" viewBox="0 0 20 20" version="1.1" xmlns="http://www.w3.org/2000/svg" xmlns:xlink="http://www.w3.org/1999/xlink">
<title>gallery</title>
<desc>Created using Figma</desc>
<g id="Canvas" transform="translate(586 3995)">
<g id="gallery">
<g id="gallery">
<use xlink:href="#path0_fill" transform="matrix(6.12323e-17 -1 1 6.12323e-17 -586 -3975)" fill="#F2F2F2"/>
</g>
</g>
</g>
<defs>
<path id="path0_fill" fill-rule="evenodd" d="M 3.44828 0L 3.7931 0L 4.48276 0L 18.9655 0L 19.6552 0L 20 0L 20 0.344828L 20 1.03448L 20 15.5172L 20 16.2069L 20 16.5517L 19.6552 16.5517L 18.9655 16.5517L 16.5517 16.5517L 16.5517 18.9655L 16.5517 19.6552L 16.5517 20L 16.2069 20L 15.5172 20L 1.03448 20L 0.344828 20L 0 20L 0 19.6552L 0 18.9655L 0 4.48276L 0 3.7931L 0 3.44828L 0.344828 3.44828L 1.03448 3.44828L 3.44828 3.44828L 3.44828 1.03448L 3.44828 0.344828L 3.44828 0ZM 4.82759 3.44828L 15.5172 3.44828L 16.2069 3.44828L 16.5517 3.44828L 16.5517 3.7931L 16.5517 4.48276L 16.5517 15.1724L 18.6207 15.1724L 18.6207 1.37931L 4.82759 1.37931L 4.82759 3.44828ZM 1.37931 4.82759L 1.37931 18.6207L 15.1724 18.6207L 15.1724 4.82759L 1.37931 4.82759Z"/>
</defs>
</svg>
