<svg width="16" height="14" viewBox="0 0 16 14" fill="none" xmlns="http://www.w3.org/2000/svg">
<path fill-rule="evenodd" clip-rule="evenodd" d="M2 8.70038L7 10.9226V3.07765L2 5.29987V8.70038ZM0 4.00012V10.0001L9 14.0001V0.00012207L0 4.00012Z" fill="black"/>
<path fill-rule="evenodd" clip-rule="evenodd" d="M11.7654 5.15236C11.5227 5.05185 11.2626 5.00012 11 5.00012V9.00012C11.2626 9.00012 11.5227 8.94839 11.7654 8.84788C12.008 8.74737 12.2285 8.60005 12.4142 8.41434C12.5999 8.22862 12.7473 8.00814 12.8478 7.76549C12.9483 7.52284 13 7.26277 13 7.00012C13 6.73748 12.9483 6.47741 12.8478 6.23476C12.7473 5.99211 12.5999 5.77163 12.4142 5.58591C12.2285 5.40019 12.008 5.25287 11.7654 5.15236Z" fill="black"/>
</svg>
