<svg width="14" height="14" viewBox="0 0 14 14" fill="none" xmlns="http://www.w3.org/2000/svg">
<path d="M13 1.00012H14V0.00012207H13V1.00012ZM1 1.00012V0.00012207H0V1.00012H1ZM1 13.0001H0V14.0001H1V13.0001ZM13 13.0001L13 14.0001L14 14.0001L14 13.0001L13 13.0001ZM14 6.00012V1.00012H12V6.00012H14ZM13 0.00012207H8V2.00012H13V0.00012207ZM2 6.00012V1.00012H0V6.00012H2ZM1 2.00012H6V0.00012207H1V2.00012ZM0 8.00012V13.0001H2V8.00012H0ZM1 14.0001H6V12.0001H1V14.0001ZM12 8.00012L12 13.0001L14 13.0001L14 8.00012L12 8.00012ZM13 12.0001L8 12.0001L8 14.0001L13 14.0001L13 12.0001Z" fill="black"/>
</svg>
