<svg width="30" height="30" viewBox="0 0 30 30" version="1.1" xmlns="http://www.w3.org/2000/svg" xmlns:xlink="http://www.w3.org/1999/xlink">
<title>soundcloud:text</title>
<desc>Created using Figma</desc>
<g id="Canvas" transform="translate(1182 3815)">
<g id="soundcloud:text">
<g id="Vector">
<use xlink:href="#path0_fill" transform="translate(-1176.75 -3805.25)" fill="#FF5500"/>
</g>
</g>
</g>
<defs>
<path id="path0_fill" d="M 0.220841 4.78429C 0.180152 4.78429 0.147858 4.81401 0.142597 4.85639L 3.60788e-09 5.87953L 0.142597 6.88505C 0.147858 6.92743 0.180132 6.95694 0.220841 6.95694C 0.260248 6.95694 0.292346 6.92763 0.298631 6.88542L 0.298631 6.88521L 0.298631 6.88542L 0.467651 5.87951L 0.298631 4.85619C 0.292543 4.814 0.260051 4.78429 0.220841 4.78429ZM 1.02277 4.22528C 1.01605 4.18132 0.982709 4.151 0.941607 4.151C 0.900288 4.151 0.866102 4.1823 0.860447 4.22528C 0.860447 4.22567 0.668768 5.87953 0.668768 5.87953L 0.860447 7.49714C 0.865905 7.54052 0.900091 7.57183 0.941607 7.57183C 0.982492 7.57183 1.01585 7.54132 1.02255 7.49755L 1.24063 5.87953L 1.02277 4.22528ZM 4.04344 2.69939C 3.96481 2.69939 3.89978 2.7602 3.89602 2.83746L 3.74335 5.88091L 3.89602 7.84775C 3.9 7.9246 3.96481 7.98522 4.04344 7.98522C 4.12167 7.98522 4.18647 7.9244 4.19108 7.84736L 4.19108 7.84796L 4.36367 5.88091L 4.19108 2.83746C 4.18645 2.7602 4.12165 2.69939 4.04344 2.69939ZM 2.48004 3.75719C 2.41965 3.75719 2.37037 3.80275 2.36552 3.86355L 2.19357 5.88011L 2.36552 7.83109C 2.37013 7.89151 2.41963 7.93707 2.48004 7.93707C 2.5398 7.93707 2.58908 7.89151 2.59435 7.83109L 2.78979 5.88011L 2.59435 3.86315C 2.58908 3.80275 2.5398 3.75719 2.48004 3.75719ZM 5.63222 7.98503C 5.72974 7.98503 5.80901 7.91074 5.81299 7.81565L 5.96274 5.8819L 5.8132 1.82995C 5.80922 1.73486 5.72993 1.66058 5.63244 1.66058C 5.53408 1.66058 5.45461 1.73507 5.45144 1.83016L 5.3187 5.88169L 5.45144 7.81624C 5.45459 7.91055 5.53406 7.98503 5.63222 7.98503ZM 8.88483 7.99415C 9.01906 7.99415 9.12979 7.88976 9.13229 7.76139L 9.13229 7.76277L 9.13229 7.76139L 9.23674 5.88309L 9.13227 1.2034C 9.12997 1.07523 9.01904 0.970653 8.88481 0.970653C 8.75039 0.970653 8.63946 1.07505 8.63735 1.2036L 8.54404 5.88151C 8.54404 5.88448 8.63735 7.76257 8.63735 7.76257C 8.63948 7.88974 8.75061 7.99415 8.88483 7.99415ZM 7.24614 7.98682C 7.36297 7.98682 7.45711 7.89826 7.46027 7.78536L 7.46027 7.78674L 7.58734 5.88231L 7.46005 1.80105C 7.4569 1.68813 7.36275 1.59979 7.24593 1.59979C 7.12828 1.59979 7.03413 1.68815 7.03161 1.80105L 6.91859 5.88251L 7.03183 7.78656C 7.03435 7.89827 7.12849 7.98682 7.24614 7.98682ZM 3.2587 7.96899C 3.32812 7.96899 3.38433 7.91649 3.38957 7.84736L 3.5737 5.88013L 3.38957 4.00877C 3.38455 3.93964 3.32835 3.88753 3.2587 3.88753C 3.18826 3.88753 3.13204 3.94001 3.12765 4.00957L 2.96553 5.88013L 3.12765 7.84718C 3.13226 7.91649 3.18824 7.96899 3.2587 7.96899ZM 1.70769 7.86123C 1.75843 7.86123 1.79953 7.82339 1.8054 7.77109L 2.01218 5.87972L 1.8056 3.91705C 1.79951 3.86456 1.75841 3.8267 1.70767 3.8267C 1.65628 3.8267 1.61518 3.86475 1.60994 3.91705L 1.42792 5.87972L 1.60994 7.7707C 1.61499 7.82318 1.65609 7.86123 1.70769 7.86123ZM 8.06236 1.73309C 7.93548 1.73309 7.83375 1.82839 7.83125 1.95041L 7.72808 5.8827L 7.83125 7.77485C 7.83377 7.89529 7.93527 7.99058 8.06236 7.99058C 8.18901 7.99058 8.29011 7.89549 8.29303 7.77347L 8.29303 7.77505L 8.40879 5.8829L 8.29303 1.95C 8.29009 1.82839 8.18899 1.73309 8.06236 1.73309ZM 4.83489 7.989C 4.92255 7.989 4.9949 7.92144 4.9991 7.83526L 5.16016 5.88149L 4.9991 2.14194C 4.99469 2.05557 4.92255 1.98823 4.83489 1.98823C 4.7464 1.98823 4.67426 2.05577 4.67048 2.14194L 4.52788 5.88149L 4.6707 7.83606C 4.67424 7.92144 4.74638 7.989 4.83489 7.989ZM 6.63337 7.80457L 6.63337 7.80357L 6.77177 5.8821L 6.63337 1.69367C 6.63001 1.58969 6.54319 1.50807 6.43602 1.50807C 6.32822 1.50807 6.24141 1.58948 6.23849 1.69367L 6.1156 5.8819L 6.23869 7.80437C 6.24162 7.90737 6.32846 7.98878 6.43604 7.98878C 6.54341 7.98878 6.62981 7.90737 6.63339 7.80377L 6.63339 7.80457L 6.63337 7.80457ZM 17.1017 3.46777C 16.7731 3.46777 16.4596 3.53057 16.174 3.64367C 15.9831 1.60177 14.1704 -6.81592e-09 11.9592 -6.81592e-09C 11.4181 -6.81592e-09 10.8907 0.100635 10.4249 0.270786C 10.244 0.336952 10.1957 0.40509 10.1941 0.537217L 10.1941 7.72789C 10.1959 7.86655 10.3098 7.98204 10.4531 7.99572C 10.4592 7.99631 17.0587 7.99948 17.1015 7.99948C 18.4261 7.99948 19.5 6.98505 19.5 5.73373C 19.5 4.48238 18.4263 3.46777 17.1017 3.46777ZM 9.70374 0.530889C 9.55967 0.530889 9.44141 0.642617 9.4393 0.77988L 9.33109 5.88368L 9.43952 7.73602C 9.44141 7.87133 9.55969 7.98286 9.70374 7.98286C 9.84739 7.98286 9.96567 7.87133 9.96776 7.73405L 9.96776 7.73623L 10.0854 5.88368L 9.96776 0.779489C 9.96567 0.642617 9.84739 0.530889 9.70374 0.530889ZM 1.93691 9.43981C 1.65317 9.3768 1.57641 9.34313 1.57641 9.23695C 1.57641 9.16209 1.64036 9.08463 1.83204 9.08463C 1.99582 9.08463 2.12376 9.14741 2.23869 9.25854L 2.49685 9.02204C 2.32805 8.85544 2.12356 8.75639 1.84507 8.75639C 1.49192 8.75639 1.20566 8.94478 1.20566 9.25162C 1.20566 9.58479 1.43594 9.68386 1.7656 9.75615C 2.10301 9.82846 2.16447 9.87698 2.16447 9.98573C 2.16447 10.1137 2.06443 10.1694 1.85261 10.1694C 1.68129 10.1694 1.52023 10.1139 1.39483 9.97583L 1.13664 10.1933C 1.2721 10.3817 1.53319 10.5 1.83202 10.5C 2.32066 10.5 2.53539 10.2827 2.53539 9.96159C 2.53541 9.59432 2.22084 9.5026 1.93691 9.43981ZM 3.58395 8.75639C 3.09575 8.75639 2.80697 9.11376 2.80697 9.6282C 2.80697 10.1427 3.09573 10.4998 3.58395 10.4998C 4.07217 10.4998 4.36135 10.1427 4.36135 9.6282C 4.36135 9.11376 4.07217 8.75639 3.58395 8.75639ZM 3.58395 10.1644C 3.29519 10.1644 3.1748 9.93008 3.1748 9.62838C 3.1748 9.3265 3.29517 9.09215 3.58395 9.09215C 3.87314 9.09215 3.9931 9.3265 3.9931 9.62838C 3.9931 9.93008 3.87314 10.1644 3.58395 10.1644ZM 5.80607 9.73218C 5.80607 10.0026 5.66515 10.1694 5.43783 10.1694C 5.21029 10.1694 5.07228 9.99781 5.07228 9.72744L 5.07228 8.78274L 4.7141 8.78274L 4.7141 9.7322C 4.7141 10.2247 5.00582 10.5 5.43781 10.5C 5.89289 10.5 6.16403 10.2173 6.16403 9.72745L 6.16403 8.78274L 5.80607 8.78274L 5.80607 9.73218ZM 7.70814 9.49786C 7.70814 9.59214 7.71316 9.80451 7.71316 9.8673C 7.69011 9.82372 7.63139 9.73933 7.58797 9.67634L 6.9536 8.78256L 6.61113 8.78256L 6.61113 10.4735L 6.96408 10.4735L 6.96408 9.72943C 6.96408 9.63516 6.95904 9.42277 6.95904 9.35998C 6.9819 9.40336 7.04103 9.48795 7.08424 9.55096L 7.74146 10.4735L 8.06106 10.4735L 8.06106 8.78254L 7.70812 8.78254L 7.70812 9.49786L 7.70814 9.49786ZM 9.08112 8.78274L 8.5212 8.78274L 8.5212 10.4736L 9.05531 10.4736C 9.51563 10.4736 9.97093 10.2223 9.97093 9.6282C 9.97093 9.00976 9.5924 8.78274 9.08112 8.78274ZM 9.05531 10.1452L 8.87918 10.1452L 8.87918 9.11138L 9.06834 9.11138C 9.44687 9.11138 9.6029 9.28272 9.6029 9.6282C 9.60288 9.93742 9.43134 10.1452 9.05531 10.1452ZM 11.078 9.09196C 11.239 9.09196 11.3414 9.15971 11.4053 9.27559L 11.7377 9.13079C 11.6251 8.91109 11.4204 8.75639 11.083 8.75639C 10.6155 8.75639 10.288 9.11376 10.288 9.6282C 10.288 10.1619 10.6023 10.4998 11.0702 10.4998C 11.395 10.4998 11.6098 10.3574 11.7325 10.1183L 11.4309 9.9491C 11.3363 10.0991 11.2415 10.1642 11.0805 10.1642C 10.812 10.1642 10.656 9.93226 10.656 9.6282C 10.6558 9.31442 10.8098 9.09196 11.078 9.09196ZM 12.4057 8.78274L 12.0477 8.78274L 12.0477 10.4736L 13.1235 10.4736L 13.1235 10.1401L 12.4057 10.1401L 12.4057 8.78274ZM 14.0666 8.75639C 13.578 8.75639 13.2892 9.11376 13.2892 9.6282C 13.2892 10.1427 13.578 10.4998 14.0666 10.4998C 14.5548 10.4998 14.8437 10.1427 14.8437 9.6282C 14.8438 9.11376 14.5548 8.75639 14.0666 8.75639ZM 14.0666 10.1644C 13.7774 10.1644 13.6574 9.93008 13.6574 9.62838C 13.6574 9.3265 13.7774 9.09215 14.0666 9.09215C 14.3552 9.09215 14.4753 9.3265 14.4753 9.62838C 14.4753 9.93008 14.3552 10.1644 14.0666 10.1644ZM 16.2883 9.73218C 16.2883 10.0026 16.148 10.1694 15.9204 10.1694C 15.6925 10.1694 15.5547 9.99781 15.5547 9.72744L 15.5547 8.78274L 15.1967 8.78274L 15.1967 9.7322C 15.1967 10.2247 15.4882 10.5 15.9204 10.5C 16.3755 10.5 16.6465 10.2173 16.6465 9.72745L 16.6465 8.78274L 16.2883 8.78274L 16.2883 9.73218ZM 17.6537 8.78274L 17.094 8.78274L 17.094 10.4736L 17.6281 10.4736C 18.0886 10.4736 18.5435 10.2223 18.5435 9.6282C 18.5435 9.00976 18.1652 8.78274 17.6537 8.78274ZM 17.6281 10.1452L 17.4517 10.1452L 17.4517 9.11138L 17.6411 9.11138C 18.0192 9.11138 18.1752 9.28272 18.1752 9.6282C 18.1752 9.93742 18.0039 10.1452 17.6281 10.1452Z"/>
</defs>
</svg>
