<svg width="18" height="16" viewBox="0 0 18 16" fill="none" xmlns="http://www.w3.org/2000/svg">
<path fill-rule="evenodd" clip-rule="evenodd" d="M10.1034 0.639962C9.61311 -0.213321 8.38689 -0.213321 7.89664 0.639962L0.172537 14.08C-0.317704 14.9333 0.295098 16 1.27589 16H16.7241C17.7049 16 18.3177 14.9333 17.8275 14.08L10.1034 0.639962ZM8.54709 10.565H9.74158L9.9108 5.51997H8.37787L8.54709 10.565ZM9.72665 11.57C9.58076 11.4267 9.38666 11.355 9.14434 11.355C8.90544 11.355 8.71133 11.4283 8.56202 11.575C8.41613 11.7183 8.34303 11.9 8.34303 12.12C8.34303 12.34 8.41613 12.5217 8.56202 12.665C8.71133 12.8083 8.90544 12.88 9.14434 12.88C9.38666 12.88 9.58076 12.8083 9.72665 12.665C9.87597 12.5217 9.95062 12.34 9.95062 12.12C9.95062 11.8967 9.87597 11.7133 9.72665 11.57Z" fill="#FFD833"/>
</svg>
