<svg width="30" height="30" viewBox="0 0 30 30" version="1.1" xmlns="http://www.w3.org/2000/svg" xmlns:xlink="http://www.w3.org/1999/xlink">
<title>youtube</title>
<desc>Created using Figma</desc>
<g id="Canvas" transform="translate(1142 3775)">
<g id="youtube">
<g id="Vector">
<use xlink:href="#path0_fill" transform="translate(-1134.5 -3766)" fill="#CD201F"/>
</g>
</g>
</g>
<defs>
<path id="path0_fill" d="M 6.52294 11.2361C 3.52342 11.1799 2.49893 11.1294 1.86922 10.9974C 1.44318 10.9097 1.07296 10.7151 0.801495 10.4328C 0.59169 10.2191 0.424839 9.89307 0.29539 9.44075C 0.184351 9.06392 0.141104 8.75038 0.0794483 7.98453C -0.014935 6.25609 -0.037435 4.84296 0.0794483 3.26401C 0.175877 2.39206 0.22263 1.35696 0.863151 0.753073C 1.16559 0.470448 1.51741 0.288569 1.91247 0.213381C 2.52962 0.0942085 5.15891 4.53472e-09 7.88083 4.53472e-09C 10.5966 4.53472e-09 13.2317 0.0942085 13.8495 0.213381C 14.343 0.307589 14.8059 0.589917 15.0776 0.953971C 15.662 1.88892 15.6723 3.05152 15.7316 3.96091C 15.7561 4.39421 15.7561 6.85463 15.7316 7.28792C 15.6393 8.72512 15.565 9.23361 15.3552 9.76082C 15.2255 10.0937 15.1147 10.2693 14.923 10.464C 14.6224 10.7635 14.2392 10.9628 13.8243 11.0352C 11.2287 11.2337 9.02453 11.2768 6.52294 11.2361ZM 10.4978 5.46111C 9.05375 4.67624 7.67102 3.94843 6.25761 3.19506L 6.25761 7.7022C 7.74495 6.87989 9.31294 6.12652 10.504 5.45487L 10.4978 5.46111Z"/>
</defs>
</svg>
