<svg width="30" height="30" viewBox="0 0 30 30" version="1.1" xmlns="http://www.w3.org/2000/svg" xmlns:xlink="http://www.w3.org/1999/xlink">
<title>github</title>
<desc>Created using Figma</desc>
<g id="Canvas" transform="translate(1182 3735)">
<g id="github">
<g id="Vector">
<use xlink:href="#path0_fill" transform="translate(-1176 -3729)" fill="#161614"/>
<use xlink:href="#path1_fill" transform="translate(-1176 -3729)" fill="#161614"/>
</g>
</g>
</g>
<defs>
<path id="path0_fill" d="M 9.00004 0C 4.03009 0 0 3.95923 0 8.84333C 0 12.7506 2.57878 16.0655 6.15479 17.2348C 6.60457 17.3167 6.76974 17.043 6.76974 16.8094C 6.76974 16.5985 6.76134 15.9018 6.75753 15.1629C 4.25364 15.6979 3.7253 14.1195 3.7253 14.1195C 3.31591 13.0973 2.72602 12.8256 2.72602 12.8256C 1.90949 12.2767 2.78757 12.2879 2.78757 12.2879C 3.69135 12.3504 4.16724 13.1993 4.16724 13.1993C 4.96994 14.5513 6.27267 14.1604 6.78625 13.9345C 6.867 13.3628 7.10029 12.9728 7.35765 12.7519C 5.35866 12.5283 3.25718 11.77 3.25718 8.38149C 3.25718 7.41604 3.60877 6.62711 4.18453 6.00782C 4.09108 5.78505 3.78304 4.88563 4.27171 3.66752C 4.27171 3.66752 5.02747 3.42983 6.74736 4.57401C 7.46522 4.37801 8.23517 4.2798 9.00004 4.27647C 9.7649 4.2798 10.5354 4.37801 11.2547 4.57401C 12.9725 3.42983 13.7272 3.66752 13.7272 3.66752C 14.2171 4.88563 13.9089 5.78505 13.8155 6.00782C 14.3925 6.62711 14.7417 7.41597 14.7417 8.38149C 14.7417 11.778 12.6363 12.526 10.6322 12.7449C 10.955 13.0193 11.2426 13.5575 11.2426 14.3825C 11.2426 15.5657 11.2322 16.5181 11.2322 16.8094C 11.2322 17.0447 11.3942 17.3205 11.8504 17.2336C 15.4245 16.063 18 12.7493 18 8.84333C 18 3.95923 13.9705 0 9.00004 0Z"/>
<path id="path1_fill" d="M 3.37083 12.5975C 3.35107 12.6415 3.28062 12.6546 3.2166 12.6245C 3.15131 12.5957 3.1146 12.5358 3.13578 12.4916C 3.15519 12.4464 3.22564 12.4338 3.29079 12.4642C 3.35622 12.493 3.39349 12.5534 3.37083 12.5975ZM 3.81354 12.9857C 3.77063 13.0248 3.6867 13.0066 3.62974 12.9448C 3.57087 12.8832 3.55986 12.8008 3.60341 12.761C 3.64767 12.722 3.72905 12.7402 3.78806 12.8019C 3.84693 12.8643 3.85844 12.9461 3.81354 12.9857ZM 4.11727 13.4823C 4.06208 13.5199 3.97187 13.4846 3.91618 13.406C 3.86105 13.3274 3.86105 13.2331 3.91738 13.1953C 3.97328 13.1575 4.06208 13.1915 4.11854 13.2695C 4.1736 13.3494 4.17367 13.4437 4.11727 13.4823ZM 4.63086 14.0574C 4.58152 14.1108 4.47649 14.0966 4.39955 14.0236C 4.32091 13.9523 4.29896 13.8511 4.34844 13.7976C 4.39835 13.7441 4.50401 13.7591 4.58152 13.8315C 4.65966 13.9026 4.68344 14.0046 4.63086 14.0574ZM 5.29464 14.2516C 5.27297 14.3209 5.17175 14.3523 5.06983 14.3229C 4.96804 14.2926 4.90141 14.2115 4.92195 14.1415C 4.94313 14.0718 5.04477 14.039 5.14747 14.0705C 5.24912 14.1006 5.31582 14.1812 5.29464 14.2516ZM 6.05019 14.334C 6.05274 14.4069 5.96627 14.4674 5.85926 14.4687C 5.75162 14.471 5.66458 14.412 5.66346 14.3403C 5.66346 14.2666 5.74795 14.2067 5.85552 14.205C 5.96253 14.2029 6.05019 14.2615 6.05019 14.334ZM 6.79233 14.306C 6.80518 14.3772 6.73078 14.4503 6.62455 14.4697C 6.52008 14.4884 6.42338 14.4445 6.41004 14.374C 6.39705 14.301 6.47286 14.228 6.57712 14.2091C 6.68356 14.1909 6.77878 14.2337 6.79233 14.306Z"/>
</defs>
</svg>
