<svg width="30" height="30" viewBox="0 0 30 30" version="1.1" xmlns="http://www.w3.org/2000/svg" xmlns:xlink="http://www.w3.org/1999/xlink">
<title>dribbble</title>
<desc>Created using Figma</desc>
<g id="Canvas" transform="translate(1182 3895)">
<g id="dribbble">
<g id="SVGID 3">
<use xlink:href="#path0_fill" transform="translate(-1176 -3889)" fill="#EA4C89"/>
</g>
</g>
</g>
<defs>
<path id="path0_fill" d="M 9 18C 4.05738 18 -9.3804e-08 13.9672 -9.3804e-08 9C -9.3804e-08 4.03279 4.05738 -9.3804e-08 9 -9.3804e-08C 13.9426 -9.3804e-08 18 4.05738 18 9C 18 13.9426 13.9672 18 9 18ZM 16.5984 10.2295C 16.3279 10.1557 14.1885 9.51639 11.8033 9.90984C 12.7869 12.6885 13.2049 14.9016 13.2787 15.3934C 15.0246 14.1885 16.2295 12.3689 16.5984 10.2295ZM 12 16.082C 11.877 15.3934 11.4344 13.0328 10.3525 10.2295L 10.3033 10.2295C 6 11.7541 4.42623 14.7541 4.27869 15.0246C 5.60656 16.0328 7.22951 16.6721 9 16.6721C 10.082 16.6721 11.0902 16.4754 12 16.082ZM 3.29508 14.1639C 3.44262 13.8934 5.58197 10.377 9.54098 9.09836C 9.66393 9.04918 9.73771 9.02459 9.86066 9.02459C 9.66393 8.58197 9.46721 8.13935 9.22131 7.69672C 5.38525 8.85246 1.67213 8.80328 1.30328 8.77869L 1.30328 9.02459C 1.32787 10.9918 2.04098 12.7869 3.29508 14.1639ZM 1.47541 7.45082C 1.84426 7.45082 4.9918 7.45082 8.58197 6.54098C 7.30328 4.2541 5.95082 2.38525 5.7541 2.11475C 3.56557 3.09836 1.96721 5.04098 1.47541 7.45082ZM 7.20492 1.57377C 7.40164 1.84426 8.80328 3.7623 10.082 6.04918C 12.7869 5.01639 13.9672 3.4918 14.1148 3.29508C 12.7623 2.09016 10.9672 1.37705 9.04918 1.37705C 8.36066 1.32787 7.77049 1.40164 7.20492 1.57377ZM 14.9508 4.15574C 14.7787 4.35246 13.5246 6.02459 10.6721 7.20492C 10.8443 7.57377 11.041 7.91803 11.1885 8.31148C 11.2377 8.43443 11.3115 8.58197 11.3607 8.70492C 13.918 8.38525 16.4754 8.90164 16.7213 8.95082C 16.6721 7.13115 16.0328 5.48361 14.9508 4.15574Z"/>
</defs>
</svg>
