<svg width="18" height="18" viewBox="0 0 18 18" fill="none" xmlns="http://www.w3.org/2000/svg">
<path fill-rule="evenodd" clip-rule="evenodd" d="M18 9C18 13.9707 13.9705 18 9 18C4.02946 18 0 13.9707 0 9C0 4.02935 4.02946 0 9 0C13.9705 0 18 4.02935 18 9ZM16.2 9C16.2 12.9764 12.9765 16.2 9 16.2C7.33612 16.2 5.80419 15.6355 4.58492 14.6878L14.6878 4.58481C15.6356 5.80408 16.2 7.33623 16.2 9ZM13.4151 3.31216C12.1958 2.36448 10.6639 1.8 9 1.8C5.0235 1.8 1.8 5.02361 1.8 9C1.8 10.6638 2.36437 12.1959 3.31216 13.4152L13.4151 3.31216Z" fill="#FB3538"/>
</svg>
