<svg width="14" height="14" viewBox="0 0 14 14" fill="none" xmlns="http://www.w3.org/2000/svg">
<path d="M1 5.00012V4.00012H0V5.00012H1ZM1 9.00012H0V10.0001H1V9.00012ZM5 9.00012H6V8.00012H5V9.00012ZM5 13.0001H4V14.0001H5V13.0001ZM9 13.0001V14.0001H10V13.0001H9ZM9 9.00012V8.00012H8V9.00012H9ZM13 9.00012V10.0001H14V9.00012H13ZM13 5.00012H14V4.00012H13V5.00012ZM9 5.00012H8V6.00012H9V5.00012ZM9 1.00012H10V0.00012207H9V1.00012ZM5 1.00012V0.00012207H4V1.00012H5ZM5 5.00012V6.00012H6V5.00012H5ZM0 5.00012V9.00012H2V5.00012H0ZM1 10.0001H5V8.00012H1V10.0001ZM4 9.00012V13.0001H6V9.00012H4ZM5 14.0001H9V12.0001H5V14.0001ZM10 13.0001V9.00012H8V13.0001H10ZM9 10.0001H13V8.00012H9V10.0001ZM14 9.00012V5.00012H12V9.00012H14ZM13 4.00012H9V6.00012H13V4.00012ZM10 5.00012V1.00012H8V5.00012H10ZM9 0.00012207H5V2.00012H9V0.00012207ZM4 1.00012V5.00012H6V1.00012H4ZM5 4.00012H1V6.00012H5V4.00012Z" fill="black"/>
</svg>
