<svg width="17" height="17" viewBox="0 0 17 17" fill="none" xmlns="http://www.w3.org/2000/svg">
<path d="M3.5 6.5L2.79289 7.20711L3.5 7.91421L4.20711 7.20711L3.5 6.5ZM3.5 11.5L2.79289 12.2071L3.5 12.9142L4.20711 12.2071L3.5 11.5ZM3 17H17V15H3V17ZM7 13H17V11H7V13ZM11 9H17V7H11V9ZM11 5H17V3H11V5ZM0.292894 4.70711L2.79289 7.20711L4.20711 5.79289L1.70711 3.29289L0.292894 4.70711ZM4.20711 7.20711L9.70711 1.70711L8.29289 0.292893L2.79289 5.79289L4.20711 7.20711ZM0.292893 9.70711L2.79289 12.2071L4.20711 10.7929L1.70711 8.29289L0.292893 9.70711ZM4.20711 12.2071L9.70711 6.70711L8.29289 5.29289L2.79289 10.7929L4.20711 12.2071Z" fill="black"/>
</svg>
