<svg width="16" height="14" viewBox="0 0 16 14" fill="none" xmlns="http://www.w3.org/2000/svg">
<path fill-rule="evenodd" clip-rule="evenodd" d="M2 8.70038L7 10.9226V3.07765L2 5.29987V8.70038ZM0 4.00012V10.0001L9 14.0001V0.00012207L0 4.00012Z" fill="black"/>
<path fill-rule="evenodd" clip-rule="evenodd" d="M12.1481 4.22848C11.7841 4.07772 11.394 4.00012 11 4.00012V2.00012C11.6566 2.00012 12.3068 2.12945 12.9134 2.38073C13.52 2.632 14.0712 3.0003 14.5355 3.46459C14.9998 3.92888 15.3681 4.48008 15.6194 5.08671C15.8707 5.69333 16 6.34351 16 7.00012C16 7.65673 15.8707 8.30691 15.6194 8.91354C15.3681 9.52017 14.9998 10.0714 14.5355 10.5357C14.0712 10.9999 13.52 11.3682 12.9134 11.6195C12.3068 11.8708 11.6566 12.0001 11 12.0001V10.0001C11.394 10.0001 11.7841 9.92253 12.1481 9.77176C12.512 9.621 12.8427 9.40002 13.1213 9.12144C13.3999 8.84287 13.6209 8.51215 13.7716 8.14817C13.9224 7.7842 14 7.39409 14 7.00012C14 6.60616 13.9224 6.21605 13.7716 5.85207C13.6209 5.4881 13.3999 5.15738 13.1213 4.8788C12.8427 4.60023 12.512 4.37925 12.1481 4.22848ZM11 5.00012C11.2626 5.00012 11.5227 5.05185 11.7654 5.15236C12.008 5.25287 12.2285 5.40019 12.4142 5.58591C12.5999 5.77163 12.7473 5.99211 12.8478 6.23476C12.9483 6.47741 13 6.73748 13 7.00012C13 7.26277 12.9483 7.52284 12.8478 7.76549C12.7473 8.00814 12.5999 8.22862 12.4142 8.41434C12.2285 8.60005 12.008 8.74737 11.7654 8.84788C11.5227 8.94839 11.2626 9.00012 11 9.00012V5.00012Z" fill="black"/>
</svg>
