<svg width="14" height="14" viewBox="0 0 14 14" fill="none" xmlns="http://www.w3.org/2000/svg">
<path fill-rule="evenodd" clip-rule="evenodd" d="M0 0.00012207H14L0 14.0001V0.00012207ZM2 2.00012V9L9.00001 2.00012H2Z" fill="black"/>
<path d="M6.00001 13.0001C6.00001 13.5524 5.55229 14.0001 5.00001 14.0001C4.44772 14.0001 4.00001 13.5524 4.00001 13.0001C4.00001 12.4478 4.44772 12.0001 5.00001 12.0001C5.55229 12.0001 6.00001 12.4478 6.00001 13.0001Z" fill="black"/>
<path d="M10 13.0001C10 13.5524 9.55229 14.0001 9.00001 14.0001C8.44772 14.0001 8.00001 13.5524 8.00001 13.0001C8.00001 12.4478 8.44772 12.0001 9.00001 12.0001C9.55229 12.0001 10 12.4478 10 13.0001Z" fill="black"/>
<path d="M14 13.0001C14 13.5524 13.5523 14.0001 13 14.0001C12.4477 14.0001 12 13.5524 12 13.0001C12 12.4478 12.4477 12.0001 13 12.0001C13.5523 12.0001 14 12.4478 14 13.0001Z" fill="black"/>
<path d="M14 9.00007C14 9.55236 13.5523 10.0001 13 10.0001C12.4477 10.0001 12 9.55236 12 9.00007C12 8.44779 12.4477 8.00007 13 8.00007C13.5523 8.00007 14 8.44779 14 9.00007Z" fill="black"/>
<path d="M14 5.00007C14 5.55236 13.5523 6.00007 13 6.00007C12.4477 6.00007 12 5.55236 12 5.00007C12 4.44779 12.4477 4.00007 13 4.00007C13.5523 4.00007 14 4.44779 14 5.00007Z" fill="black"/>
</svg>
