<svg width="18" height="14" viewBox="0 0 18 14" fill="none" xmlns="http://www.w3.org/2000/svg">
<path d="M12 7L15.0663 2.99988L18 7L16.069 6.99988C16.069 8.24197 15.7385 9.4617 15.1114 10.5339C14.4843 11.6061 13.5832 12.4921 12.5006 13.101C11.418 13.7099 10.1929 14.0198 8.95097 13.9989C7.70905 13.9779 6.49507 13.6269 5.43361 12.9819L6.47228 11.2727C7.23047 11.7335 8.0976 11.9842 8.98469 11.9992C9.87178 12.0141 10.7469 11.7928 11.5202 11.3578C12.2934 10.9229 12.9371 10.29 13.385 9.52417C13.8329 8.75832 14.069 7.88709 14.069 6.99988L12 7Z" fill="black"/>
<path d="M6 7L2.93359 11L0 7L1.93091 7C1.93091 5.7579 2.26141 4.53817 2.88849 3.46599C3.51558 2.39381 4.41666 1.50779 5.49926 0.898868C6.58186 0.289949 7.80699 -0.019944 9.04891 0.000994962C10.2908 0.0219339 11.5048 0.372951 12.5663 1.01802L11.5276 2.72716C10.7694 2.26639 9.90229 2.01567 9.0152 2.00071C8.12811 1.98575 7.25302 2.2071 6.47973 2.64205C5.70645 3.07699 5.06281 3.70986 4.6149 4.47571C4.16698 5.24155 3.93091 6.11279 3.93091 7L6 7Z" fill="black"/>
</svg>
