<svg width="17" height="17" viewBox="0 0 17 17" fill="none" xmlns="http://www.w3.org/2000/svg">
<path d="M9.99994 5.00021H16.9999V3.00021H9.99994V5.00021ZM2.99994 17.0002H16.9999V15.0002H2.99994V17.0002ZM2.99994 13.0002H16.9999V11.0002H2.99994V13.0002ZM9.99994 9.0002H16.9999V7.0002H9.99994V9.0002ZM0.292893 1.70711L3.82843 5.24264L5.24264 3.82843L1.70711 0.292893L0.292893 1.70711ZM3.82843 5.24264L7.36396 8.77817L8.77817 7.36396L5.24264 3.82843L3.82843 5.24264ZM7.36396 0.292893L3.82843 3.82843L5.24264 5.24264L8.77817 1.70711L7.36396 0.292893ZM3.82843 3.82843L0.292893 7.36396L1.70711 8.77817L5.24264 5.24264L3.82843 3.82843Z" fill="black"/>
</svg>
