<svg width="18" height="12" viewBox="0 0 18 12" fill="none" xmlns="http://www.w3.org/2000/svg">
<path d="M2 6L1.13133 5.5046L0.848809 6L1.13133 6.4954L2 6ZM16 6L16.8687 6.4954L17.1512 6L16.8687 5.5046L16 6ZM2 6C2.86867 6.4954 2.86852 6.49565 2.86839 6.49587C2.86837 6.49592 2.86825 6.49613 2.86819 6.49624C2.86807 6.49644 2.868 6.49657 2.86797 6.49662C2.8679 6.49674 2.86801 6.49655 2.86828 6.49607C2.86883 6.49512 2.87006 6.493 2.87195 6.48975C2.87575 6.48326 2.88221 6.47226 2.8913 6.45705C2.90949 6.42663 2.93815 6.37946 2.97689 6.31793C3.05444 6.19475 3.17194 6.01474 3.32629 5.7969C3.63626 5.35946 4.08826 4.7788 4.65669 4.2018C5.82259 3.01831 7.32837 2 9 2V0C6.52313 0 4.5289 1.48169 3.23193 2.7982C2.56893 3.4712 2.04877 4.14054 1.69444 4.6406C1.51664 4.89151 1.37896 5.10213 1.28437 5.25238C1.23703 5.32757 1.20038 5.38782 1.17477 5.43064C1.16196 5.45206 1.15191 5.46914 1.14466 5.48156C1.14103 5.48778 1.1381 5.49283 1.13588 5.49668C1.13477 5.49861 1.13384 5.50023 1.13308 5.50155C1.1327 5.50221 1.13236 5.5028 1.13207 5.50331C1.13193 5.50356 1.13174 5.50389 1.13167 5.50401C1.1315 5.50432 1.13133 5.5046 2 6ZM9 2C10.6716 2 12.1774 3.01831 13.3433 4.2018C13.9117 4.7788 14.3637 5.35946 14.6737 5.7969C14.8281 6.01474 14.9456 6.19475 15.0231 6.31793C15.0619 6.37946 15.0905 6.42663 15.1087 6.45705C15.1178 6.47226 15.1243 6.48326 15.128 6.48975C15.1299 6.493 15.1312 6.49512 15.1317 6.49607C15.132 6.49655 15.1321 6.49674 15.132 6.49662C15.132 6.49657 15.1319 6.49644 15.1318 6.49624C15.1318 6.49613 15.1316 6.49592 15.1316 6.49587C15.1315 6.49565 15.1313 6.4954 16 6C16.8687 5.5046 16.8685 5.50432 16.8683 5.50401C16.8683 5.50389 16.8681 5.50356 16.8679 5.50331C16.8676 5.5028 16.8673 5.50221 16.8669 5.50155C16.8662 5.50023 16.8652 5.49861 16.8641 5.49668C16.8619 5.49283 16.859 5.48778 16.8553 5.48156C16.8481 5.46914 16.838 5.45206 16.8252 5.43064C16.7996 5.38782 16.763 5.32757 16.7156 5.25238C16.621 5.10213 16.4834 4.89151 16.3056 4.6406C15.9512 4.14054 15.4311 3.4712 14.7681 2.7982C13.4711 1.48169 11.4769 0 9 0V2ZM16 6C15.1313 5.5046 15.1315 5.50435 15.1316 5.50413C15.1316 5.50408 15.1318 5.50387 15.1318 5.50376C15.1319 5.50356 15.132 5.50343 15.132 5.50338C15.1321 5.50326 15.132 5.50345 15.1317 5.50393C15.1312 5.50488 15.1299 5.507 15.128 5.51025C15.1243 5.51674 15.1178 5.52774 15.1087 5.54295C15.0905 5.57337 15.0619 5.62054 15.0231 5.68207C14.9456 5.80525 14.8281 5.98526 14.6737 6.2031C14.3637 6.64054 13.9117 7.2212 13.3433 7.7982C12.1774 8.98169 10.6716 10 9 10V12C11.4769 12 13.4711 10.5183 14.7681 9.2018C15.4311 8.5288 15.9512 7.85946 16.3056 7.3594C16.4834 7.10849 16.621 6.89787 16.7156 6.74762C16.763 6.67243 16.7996 6.61218 16.8252 6.56936C16.838 6.54794 16.8481 6.53086 16.8553 6.51844C16.859 6.51222 16.8619 6.50717 16.8641 6.50332C16.8652 6.50139 16.8662 6.49977 16.8669 6.49845C16.8673 6.49779 16.8676 6.4972 16.8679 6.49669C16.8681 6.49644 16.8683 6.49611 16.8683 6.49599C16.8685 6.49568 16.8687 6.4954 16 6ZM9 10C7.32837 10 5.82259 8.98169 4.65669 7.7982C4.08826 7.2212 3.63626 6.64054 3.32629 6.2031C3.17194 5.98526 3.05444 5.80525 2.97689 5.68207C2.93815 5.62054 2.90949 5.57337 2.8913 5.54295C2.88221 5.52774 2.87575 5.51674 2.87195 5.51025C2.87006 5.507 2.86883 5.50488 2.86828 5.50393C2.86801 5.50345 2.8679 5.50326 2.86797 5.50338C2.868 5.50343 2.86807 5.50356 2.86819 5.50376C2.86825 5.50387 2.86837 5.50408 2.86839 5.50413C2.86852 5.50435 2.86867 5.5046 2 6C1.13133 6.4954 1.1315 6.49568 1.13167 6.49599C1.13174 6.49611 1.13193 6.49644 1.13207 6.49669C1.13236 6.4972 1.1327 6.49779 1.13308 6.49845C1.13384 6.49977 1.13477 6.50139 1.13588 6.50332C1.1381 6.50717 1.14103 6.51222 1.14466 6.51844C1.15191 6.53086 1.16196 6.54794 1.17477 6.56936C1.20038 6.61218 1.23703 6.67243 1.28437 6.74762C1.37896 6.89787 1.51664 7.10849 1.69444 7.3594C2.04877 7.85946 2.56893 8.5288 3.23193 9.2018C4.5289 10.5183 6.52313 12 9 12V10ZM9 6C9 6.06462 8.98964 6.08433 8.99334 6.0751C8.99511 6.0707 8.99935 6.06164 9.00735 6.0501C9.01537 6.03854 9.02522 6.02728 9.03625 6.0173C9.04716 6.00743 9.05713 6.0007 9.06447 5.99652C9.07165 5.99244 9.07515 5.99144 9.07347 5.992C9.07169 5.99259 9.06496 5.99464 9.05244 5.99652C9.03991 5.99841 9.02249 6 9 6V8C9.45378 8 9.96695 7.87229 10.378 7.50047C10.806 7.11327 11 6.57294 11 6H9ZM9 6C9.02249 6 9.03991 6.00159 9.05244 6.00348C9.06496 6.00536 9.07169 6.00741 9.07347 6.008C9.07515 6.00856 9.07165 6.00756 9.06447 6.00348C9.05713 5.9993 9.04716 5.99257 9.03625 5.9827C9.02522 5.97272 9.01537 5.96146 9.00735 5.9499C8.99935 5.93836 8.99511 5.9293 8.99334 5.9249C8.98964 5.91567 9 5.93538 9 6H11C11 5.42705 10.806 4.88673 10.378 4.49953C9.96695 4.12771 9.45378 4 9 4V6ZM9 6C9 5.93538 9.01036 5.91567 9.00666 5.9249C9.00489 5.9293 9.00065 5.93836 8.99265 5.9499C8.98463 5.96146 8.97478 5.97272 8.96375 5.9827C8.95284 5.99257 8.94287 5.9993 8.93553 6.00348C8.92835 6.00756 8.92485 6.00856 8.92653 6.008C8.92831 6.00741 8.93504 6.00536 8.94756 6.00348C8.96009 6.00159 8.97751 6 9 6V4C8.54622 4 8.03305 4.12771 7.62203 4.49953C7.19402 4.88673 7 5.42706 7 6H9ZM9 6C8.97751 6 8.96009 5.99841 8.94756 5.99652C8.93504 5.99464 8.92831 5.99259 8.92653 5.992C8.92485 5.99144 8.92835 5.99244 8.93553 5.99652C8.94287 6.0007 8.95284 6.00743 8.96375 6.0173C8.97478 6.02728 8.98463 6.03854 8.99265 6.0501C9.00065 6.06164 9.00489 6.0707 9.00666 6.0751C9.01036 6.08433 9 6.06462 9 6H7C7 6.57294 7.19402 7.11327 7.62203 7.50047C8.03305 7.87229 8.54622 8 9 8V6Z" fill="black"/>
</svg>
