<svg width="22" height="11" viewBox="0 0 22 11" fill="none" xmlns="http://www.w3.org/2000/svg">
<path fill-rule="evenodd" clip-rule="evenodd" d="M1.41421 0L4.34315 2.92893C7.85786 6.44365 13.5563 6.44365 17.0711 2.92893L20 0L21.4142 1.41421L18.4853 4.34315C18.0668 4.76159 17.6231 5.13927 17.1589 5.47619L19.5071 8.60711L17.9071 9.80711L15.4292 6.50319C14.2469 7.06488 12.9852 7.40372 11.7071 7.5197V10.7071H9.70711V7.5197C8.42898 7.40372 7.16727 7.06488 5.98505 6.50319L5.00711 7.80711L3.50711 9.80711L1.90711 8.60711L3.40711 6.60711L4.25529 5.47619C3.79114 5.13927 3.34737 4.76159 2.92893 4.34315L0 1.41421L1.41421 0Z" transform="translate(0.292969 0.292847)" fill="black"/>
</svg>
