<svg width="30" height="30" viewBox="0 0 30 30" version="1.1" xmlns="http://www.w3.org/2000/svg" xmlns:xlink="http://www.w3.org/1999/xlink">
<title>youtube:text</title>
<desc>Created using Figma</desc>
<g id="Canvas" transform="translate(1182 3775)">
<g id="youtube:text">
<g id="Vector">
<use xlink:href="#path0_fill" transform="translate(-1177.5 -3764.5)" fill="#CD201F"/>
<use xlink:href="#path1_fill" transform="translate(-1177.5 -3764.5)" fill="#CD201F"/>
<use xlink:href="#path2_fill" transform="translate(-1177.5 -3764.5)" fill="#CD201F"/>
<use xlink:href="#path3_fill" transform="translate(-1177.5 -3764.5)" fill="#CD201F"/>
</g>
</g>
</g>
<defs>
<path id="path0_fill" d="M 16.4696 3.90652C 16.5146 3.50244 16.6354 3.30031 16.8321 3.30031C 17.0091 3.30031 17.1163 3.48076 17.1543 3.842C 17.1614 3.9053 17.1652 4.16565 17.1652 4.62184C 17.1652 5.06246 17.1607 5.31985 17.1516 5.39486C 17.1138 5.75365 17.0076 5.93305 16.8325 5.93305C 16.6446 5.93305 16.5273 5.78635 16.4805 5.49365C 16.4642 5.39818 16.4561 5.15881 16.4561 4.77518C 16.4561 4.27773 16.4604 3.98835 16.4696 3.90652Z"/>
<path id="path1_fill" d="M 19.7779 4.1104L 19.081 4.1104C 19.081 4.07421 19.0799 4.03679 19.0778 3.99832L 19.074 3.94394C 19.0631 3.70387 19.0902 3.51923 19.1545 3.39001C 19.2081 3.2858 19.2988 3.2337 19.426 3.2337C 19.578 3.2337 19.6793 3.30958 19.7293 3.46135C 19.7618 3.55647 19.7779 3.71733 19.7779 3.94394L 19.7779 4.1104Z"/>
<path id="path2_fill" fill-rule="evenodd" d="M 19.5986 8.25C 20.7867 8.25 21.75 7.31052 21.75 6.15179L 21.7498 6.15179L 21.7498 2.09821C 21.7498 0.939475 20.7865 0 19.5984 0L 11.0847 0C 9.89656 0 8.93328 0.939475 8.93328 2.09821L 8.93328 6.15179C 8.93328 7.31052 9.89656 8.25 11.0847 8.25L 19.5986 8.25ZM 11.071 2.1998L 11.071 6.58L 11.8411 6.58L 11.8411 2.1998L 12.729 2.1998L 12.729 1.33341L 10.1827 1.33341L 10.1827 2.1998L 11.071 2.1998ZM 15.1368 6.58L 15.1368 2.6399L 14.413 2.6399L 14.413 5.15671C 14.413 5.38611 14.3994 5.54925 14.3731 5.64717C 14.3248 5.81765 14.2286 5.90262 14.0841 5.90262C 13.9505 5.90262 13.8612 5.82412 13.8166 5.66745C 13.7917 5.57653 13.7793 5.42563 13.7793 5.21441L 13.7793 2.6399L 13.0844 2.6399L 13.0844 5.73477C 13.0844 6.36808 13.3157 6.68491 13.7778 6.68491C 14.0649 6.68491 14.2823 6.5195 14.4312 6.18851L 14.4312 6.58L 15.1368 6.58ZM 15.7575 1.33341L 15.7575 6.58L 16.4416 6.57965L 16.4416 6.1677C 16.558 6.5125 16.7683 6.68473 17.0729 6.68473C 17.4381 6.68473 17.6799 6.43732 17.7981 5.94266C 17.8606 5.67934 17.892 5.24134 17.892 4.62866C 17.892 3.99762 17.8635 3.55402 17.8058 3.29752C 17.693 2.78922 17.4535 2.53499 17.0878 2.53499C 16.8014 2.53499 16.5978 2.68099 16.4773 2.97334L 16.4773 1.33341L 15.7575 1.33341ZM 20.4787 5.22805L 19.8021 5.22805C 19.8021 5.74281 19.6811 6.00019 19.4389 6.00019C 19.2761 6.00019 19.1685 5.87185 19.1165 5.61499C 19.0912 5.49015 19.0789 5.28103 19.0789 4.9878C 19.0789 4.86313 19.0817 4.77903 19.0869 4.73567L 20.4999 4.73567L 20.4999 4.4365C 20.4999 3.70614 20.4285 3.22111 20.2851 2.98069C 20.1078 2.68379 19.8279 2.53517 19.4446 2.53517C 19.0468 2.53517 18.7589 2.6726 18.5796 2.94712C 18.47 3.11497 18.3996 3.35994 18.3671 3.68236C 18.351 3.84113 18.3429 4.1076 18.3429 4.48213C 18.3429 4.94759 18.351 5.26424 18.3671 5.43227C 18.4033 5.81555 18.4865 6.10702 18.6174 6.30705C 18.782 6.55884 19.0516 6.68491 19.426 6.68491C 19.7879 6.68491 20.0545 6.58105 20.2265 6.37367C 20.3984 6.16577 20.4843 5.83531 20.4843 5.38122C 20.4843 5.36321 20.4835 5.3375 20.4814 5.30463C 20.4796 5.27176 20.4787 5.24623 20.4787 5.22805Z"/>
<path id="path3_fill" d="M 1.09129 6.60972L 1.09129 4.37268L 0 1.33341L 0.859121 1.33341L 1.48858 3.31832L 2.10979 1.33341L 2.94453 1.33341L 1.87278 4.3725L 1.87278 6.60972L 1.09129 6.60972ZM 3.21202 4.63041C 3.21202 3.94796 3.26509 3.46415 3.3714 3.17844C 3.52971 2.75408 3.84292 2.54164 4.31102 2.54164C 4.77877 2.54164 5.09323 2.7539 5.25333 3.17844C 5.35965 3.46153 5.41271 3.94552 5.41271 4.63041C 5.41271 5.31495 5.35965 5.79894 5.25333 6.08185C 5.09323 6.50411 4.77895 6.71533 4.31102 6.71533C 3.84292 6.71533 3.52971 6.50306 3.3714 6.07852C 3.26509 5.79562 3.21202 5.31268 3.21202 4.63041ZM 3.95407 4.68164C 3.95407 5.17227 3.95676 5.43892 3.96214 5.48228C 3.99961 5.83583 4.11417 6.01261 4.30564 6.01261C 4.4973 6.01261 4.61437 5.86101 4.65722 5.55764C 4.66618 5.49137 4.67066 5.24396 4.67066 4.81505L 4.67066 4.42845C 4.67066 4.02682 4.66529 3.785 4.65471 3.703C 4.60971 3.4019 4.49515 3.25136 4.31102 3.25136C 4.13192 3.25136 4.02005 3.38389 3.97523 3.64844C 3.96106 3.73272 3.95389 3.95513 3.95389 4.3155L 3.95407 4.68164ZM 8.00711 2.64742L 8.00711 6.60972L 7.29751 6.60972L 7.29751 6.21596C 7.14781 6.54887 6.92873 6.71516 6.64062 6.71516C 6.17556 6.71516 5.94303 6.39675 5.94303 5.75995L 5.94303 2.64742L 6.64187 2.64742L 6.64187 5.23644C 6.64187 5.44906 6.65442 5.60066 6.67934 5.69175C 6.72416 5.84947 6.81398 5.9285 6.94827 5.9285C 7.09349 5.9285 7.19048 5.84282 7.23888 5.67165C 7.26542 5.5732 7.27922 5.40902 7.27922 5.17857L 7.27922 2.64742L 8.00711 2.64742Z"/>
</defs>
</svg>
