<svg width="30" height="30" viewBox="0 0 30 30" version="1.1" xmlns="http://www.w3.org/2000/svg" xmlns:xlink="http://www.w3.org/1999/xlink">
<title>twitter</title>
<desc>Created using Figma</desc>
<g id="Canvas" transform="translate(1182 4015)">
<g id="twitter">
<g id="Vector">
<use xlink:href="#path0_fill" transform="translate(-1176 -4007.5)" fill="#1DA1F2"/>
</g>
</g>
</g>
<defs>
<path id="path0_fill" d="M 5.66064 15C 12.4531 15 16.1683 9.22855 16.1683 4.22358C 16.1683 4.05965 16.1683 3.89647 16.1575 3.73401C 16.8803 3.19786 17.5042 2.534 18 1.77352C 17.326 2.07982 16.611 2.28069 15.8789 2.36942C 16.6498 1.89609 17.2268 1.15161 17.5025 0.274543C 16.7776 0.715712 15.9845 1.02663 15.1574 1.19387C 14.6006 0.586659 13.8642 0.18458 13.0621 0.049853C 12.2601 -0.0848745 11.4371 0.0552605 10.7205 0.448573C 10.0039 0.841885 9.43367 1.46645 9.09806 2.22561C 8.76245 2.98477 8.68016 3.83621 8.86392 4.64817C 7.39566 4.57268 5.95929 4.18137 4.64806 3.49963C 3.33683 2.8179 2.18004 1.86098 1.2528 0.691008C 0.780546 1.5248 0.635904 2.51184 0.848325 3.45116C 1.06075 4.39048 1.61426 5.21145 2.39616 5.74693C 1.80845 5.72907 1.23356 5.56647 0.72 5.27287C 0.72 5.28838 0.72 5.30462 0.72 5.32087C 0.720233 6.19531 1.01539 7.04275 1.5554 7.71946C 2.09542 8.39616 2.84705 8.86046 3.6828 9.03361C 3.13911 9.18568 2.56866 9.20791 2.01528 9.09859C 2.25127 9.85116 2.7107 10.5093 3.32933 10.9809C 3.94796 11.4525 4.69484 11.714 5.46552 11.7288C 4.15781 12.7829 2.54236 13.3551 0.87912 13.3533C 0.58529 13.3528 0.291747 13.3345 1.02318e-15 13.2987C 1.68886 14.4102 3.65394 14.9998 5.66064 14.997"/>
</defs>
</svg>
