<svg width="9" height="14" viewBox="0 0 9 14" fill="none" xmlns="http://www.w3.org/2000/svg">
<path d="M1.00378 5.49971L0.00378418 5.49971L0.00378333 5.96758L0.362967 6.2674L1.00378 5.49971ZM7.00378 5.49971L7.6446 6.2674L8.00378 5.96758L8.00378 5.49971L7.00378 5.49971ZM0.00379562 0.499631C0.00379339 1.08543 0.00379053 2.33545 0.00378823 3.43902C0.00378707 3.99081 0.00378606 4.50598 0.00378534 4.8832C0.00378498 5.07182 0.00378469 5.22594 0.00378449 5.33291C0.00378439 5.3864 0.00378431 5.4281 0.00378426 5.45643C0.00378423 5.47059 0.00378421 5.48141 0.0037842 5.48869C0.00378419 5.49233 0.00378419 5.49508 0.00378418 5.49693C0.00378418 5.49785 0.00378418 5.49855 0.00378418 5.49901C0.00378418 5.49924 0.00378418 5.49942 0.00378418 5.49953C0.00378418 5.49959 0.00378418 5.49963 0.00378418 5.49966C0.00378418 5.49969 0.00378418 5.49971 1.00378 5.49971C2.00378 5.49971 2.00378 5.4997 2.00378 5.49967C2.00378 5.49964 2.00378 5.49959 2.00378 5.49954C2.00378 5.49942 2.00378 5.49925 2.00378 5.49901C2.00378 5.49855 2.00378 5.49785 2.00378 5.49693C2.00378 5.49509 2.00378 5.49233 2.00378 5.48869C2.00378 5.48141 2.00378 5.47059 2.00378 5.45643C2.00378 5.4281 2.00378 5.38641 2.00378 5.33292C2.00378 5.22595 2.00378 5.07182 2.00379 4.88321C2.00379 4.50598 2.00379 3.99081 2.00379 3.43903C2.00379 2.33546 2.00379 1.08544 2.0038 0.499639L0.00379562 0.499631ZM0.362967 6.2674L3.36298 8.7716L4.64461 7.23622L1.6446 4.73202L0.362967 6.2674ZM4.64462 8.7716L7.6446 6.2674L6.36296 4.73202L3.36298 7.23622L4.64462 8.7716ZM8.00378 5.49971L8.0038 0.499636L6.0038 0.499632L6.00378 5.49971L8.00378 5.49971ZM3.0038 8.00391V13.4996H5.0038V8.00391H3.0038Z" fill="black"/>
</svg>
