<svg width="30" height="30" viewBox="0 0 30 30" version="1.1" xmlns="http://www.w3.org/2000/svg" xmlns:xlink="http://www.w3.org/1999/xlink">
<title>medium</title>
<desc>Created using Figma</desc>
<g id="Canvas" transform="translate(1182 3855)">
<g id="medium">
<g id="XMLID 99">
<g id="XMLID 103">
<use xlink:href="#path0_fill" transform="translate(-1163.67 -3849)" fill="#F7F7F7"/>
</g>
<g id="XMLID 102">
<use xlink:href="#path1_fill" transform="translate(-1170.33 -3849)" fill="#E3E3E3"/>
</g>
<g id="XMLID 101">
<use xlink:href="#path2_fill" transform="translate(-1176.69 -3848.79)" fill="#C7C7C7"/>
</g>
<g id="XMLID 100">
<use xlink:href="#path3_fill" transform="translate(-1177 -3848.93)" fill="#828282"/>
</g>
</g>
</g>
</g>
<defs>
<path id="path0_fill" d="M 0.185759 0.0182845C 0.0825593 -0.0292763 2.09959e-07 0.0182845 2.09959e-07 0.133789L 2.09959e-07 13.9196L 6.11627 16.9364C 6.41899 17.0858 6.66667 16.9363 6.66667 16.5966L 6.66667 3.32716C 6.66667 3.25922 6.63227 3.19807 6.57035 3.17089L 0.185759 0.0182845Z"/>
<path id="path1_fill" d="M 1.0498e-07 10.6304L 6.55659 0.105879C 6.61851 0.0107569 6.74923 -0.0300095 6.85243 0.0243457L 13.1889 3.14977C 13.2645 3.19054 13.2989 3.28566 13.2508 3.3604L 6.66667 13.9189L 1.0498e-07 10.6304Z"/>
<path id="path2_fill" d="M 0.421462 0.0911859C 0.0155449 -0.112646 -0.122054 0.0368307 0.118744 0.424112L 6.35197 10.4255L 13.0186 13.7208L 6.39325 3.08752C 6.36573 3.03996 6.32445 3.00599 6.27629 2.97881L 0.421462 0.0911859Z"/>
<path id="path3_fill" d="M 6.66667 16.5296C 6.66667 16.8625 6.41899 17.0188 6.11627 16.8693L 0.371517 14.0293C 0.165119 13.9274 0 13.6624 0 13.4382L 0 0.263814C 0 0.0395989 0.165119 -0.0623172 0.371517 0.0395989L 6.58411 3.11067C 6.63227 3.13785 6.66667 3.18541 6.66667 3.23976L 6.66667 16.5296Z"/>
</defs>
</svg>
